<svg width="24" height="24" viewBox="0 0 24 24" fill="none" xmlns="http://www.w3.org/2000/svg">
<path d="M16 4C18.2091 4 20 5.79086 20 8C20 10.2091 18.2091 12 16 12C13.7909 12 12 10.2091 12 8C12 5.79086 13.7909 4 16 4ZM16 14C18.7614 14 21 15.7909 21 18V21H11V18C11 15.7909 13.2386 14 16 14ZM8 12C10.2091 12 12 10.2091 12 8C12 5.79086 10.2091 4 8 4C5.79086 4 4 5.79086 4 8C4 10.2091 5.79086 12 8 12ZM8 14C5.23858 14 3 15.7909 3 18V21H9V18C9 16.3431 9.68393 14.8393 10.8445 13.8491C10.0398 13.6275 9.1993 13.5 8.3 13.5C8.2 13.5 8.1 13.5 8 14Z" fill="currentColor"/>
</svg>
